<?xml version="1.0" encoding="utf-8"?>
<!-- Generator: Adobe Illustrator 24.1.2, SVG Export Plug-In . SVG Version: 6.00 Build 0)  -->
<svg version="1.1" id="Layer_1" xmlns="http://www.w3.org/2000/svg" xmlns:xlink="http://www.w3.org/1999/xlink" x="0px" y="0px"
	 viewBox="0 0 512 512" style="enable-background:new 0 0 512 512;" xml:space="preserve">
<style type="text/css">
	.st0{fill:#9CDD05;}
	.st1{fill:#2F2E3C;}
	.st2{fill:#20202B;}
</style>
<path class="st0" d="M174.9,61.2v208.6L417.1,166L174.9,61.2z"/>
<path class="st1" d="M154,75h30v422h-30V75z"/>
<path class="st2" d="M169,75h15v422h-15V75z"/>
<path class="st1" d="M169,0c-24.9,0-45,20.1-45,45c0,24.9,20.1,45,45,45s45-20.1,45-45C214,20.1,193.9,0,169,0z"/>
<path class="st2" d="M169,90V0c24.9,0,45,20.1,45,45C214,69.9,193.9,90,169,90z"/>
<path class="st1" d="M94,482h150v30H94V482z"/>
<path class="st2" d="M169,482h75v30h-75V482z"/>
</svg>
