<?xml version="1.0" encoding="utf-8"?>
<!-- Generator: Adobe Illustrator 24.1.2, SVG Export Plug-In . SVG Version: 6.00 Build 0)  -->
<svg version="1.1" id="Capa_1" xmlns="http://www.w3.org/2000/svg" xmlns:xlink="http://www.w3.org/1999/xlink" x="0px" y="0px"
	 viewBox="0 0 624.3 512" style="enable-background:new 0 0 624.3 512;" xml:space="preserve">
<style type="text/css">
	.st0{fill:#42A5F5;stroke:#FFFFFF;stroke-width:6;stroke-miterlimit:10;}
	.st1{fill:#465A61;stroke:#FFFFFF;stroke-width:6;stroke-miterlimit:10;}
	.st2{fill:#1565C0;stroke:#FFFFFF;stroke-width:6;stroke-miterlimit:10;}
	.st3{fill:#2F2E3C;stroke:#FFFFFF;stroke-width:6;stroke-miterlimit:10;}
	.st4{fill:#20202B;stroke:#FFFFFF;stroke-width:6;stroke-miterlimit:10;}
	.st5{fill:#8FA3A9;}
	.st6{fill:#F44336;}
	.st7{fill:#525464;}
	.st8{fill:#FF9800;}
</style>
<g id="flag">
	<g>
		<path class="st0" d="M251.1,190.5L201.5,54.3L4.3,125.7L98,169.1L54.7,262L251.1,190.5z"/>
		<path class="st1" d="M372.4,478.8l-27.3,9.9l-93.4-254.2L178.1,32l27.3-9.9l46.4,127.6L372.4,478.8z"/>
	</g>
	<g>
		<path class="st2" d="M620.2,125.7L423,54.3l-49.6,136.3L569.8,262l-43.3-92.9L620.2,125.7z"/>
		<path class="st1" d="M446.4,32l-73.7,202.4l-22.6-22.7l69-189.6L446.4,32z"/>
	</g>
</g>
<g id="mine">
	<path class="st3" d="M417.7,246.7c28.4,28.4,42.9,65.2,43.7,102.3c0.8,39.2-13.7,78.8-43.7,108.7c-58.3,58.3-152.7,58.3-211,0
		c-7.9-7.9-14.7-16.4-20.4-25.4c-36.7-57.7-30-135.1,20.4-185.6c18.6-18.6,40.9-31.3,64.6-38c0,0,0.1-0.1,0.2-0.1l77.4-1.1
		C374.1,213.9,397.9,227,417.7,246.7z"/>
	<g>
		<path class="st4" d="M348.8,183v24.6h0c0,7.9-17.4,14.4-38.8,14.4c-21.4,0-38.8-6.4-38.8-14.4l0,1.2V183"/>
	</g>
	<ellipse class="st3" cx="310" cy="183" rx="38.8" ry="14.4"/>
	<path class="st5" d="M315.6,123.2V183c0,1.5-0.6,2.9-1.6,3.9c-1,1-2.4,1.6-3.9,1.6c-3.1,0-5.6-2.5-5.6-5.6v-28.3c0,0,0,0,0,0
		l0-31.5c0-3.1,2.5-5.6,5.6-5.6C313.1,117.7,315.6,120.2,315.6,123.2z"/>
	<path class="st6" d="M315.6,123.2v31.5c0,1.5-0.6,2.9-1.6,3.9c-1,1-2.4,1.6-3.9,1.6c-3.1,0-5.5-2.5-5.6-5.5c0,0,0,0,0,0l0-31.5
		c0-3.1,2.5-5.6,5.6-5.6C313.1,117.7,315.6,120.2,315.6,123.2z"/>
	<path class="st7" d="M207.1,285.5c-19.8,27.1,99,10.9,157-8.4c8.1-2.7,10.9-12.7,5.5-19.3c-5.9-7.3-15.8-16-31.8-22.8
		C309.6,223,237.6,243.5,207.1,285.5z"/>
	<g>
		<path class="st8" d="M296.9,108.9c-2.2,2.2-5.7,2.2-7.9,0l-18.6-18.6c-2.2-2.2-2.2-5.7,0-7.9c2.2-2.2,5.7-2.2,7.9,0l18.6,18.6
			C299.1,103.2,299.1,106.7,296.9,108.9z"/>
		<path class="st8" d="M352.2,164.2c-2.2,2.2-5.7,2.2-7.9,0l-18.6-18.6c-2.2-2.2-2.2-5.7,0-7.9c2.2-2.2,5.7-2.2,6.9,0l18.6,18.6
			C354.4,158.5,354.4,162,352.2,164.2z"/>
		<path class="st8" d="M289.4,125c-1.1,1.1-2.7,1.8-4.4,1.6l-26.2-2.3c-3.1-0.3-5.3-3-5.1-6c0.3-3.1,3-5.3,6-5.1l26.2,2.3
			c3.1,0.3,5.3,3,5.1,6C290.9,122.9,290.3,124.1,289.4,125z"/>
		<path class="st8" d="M366.3,131.8c-1.1,1.1-2.7,1.8-4.4,1.6l-26.2-2.3c-3.1-0.3-5.3-3-5.1-6c0.3-3.1,3-5.3,6-5.1l26.2,2.3
			c3.1,0.3,5.3,3,5.1,6C367.8,129.7,367.2,130.9,366.3,131.8z"/>
		<path class="st8" d="M294,142.1c-0.2,0.2-0.5,0.4-0.7,0.6l-21.6,15.1c-2.5,1.8-6,1.2-7.7-1.4c-1.8-2.5-1.2-6,1.4-7.7l21.6-15.1
			c2.5-1.8,6-1.2,7.7,1.4C296.2,137.2,295.9,140.2,294,142.1z"/>
		<path class="st8" d="M357.1,97.3c-0.2,0.2-0.5,0.4-0.7,0.6L334.8,113c-2.5,1.8-6,1.2-7.7-1.4s-1.2-6,1.4-7.7L350,88.8
			c2.5-1.8,6-1.2,7.7,1.4C359.3,92.4,358.9,95.4,357.1,97.3z"/>
		<path class="st8" d="M318,102.2c-1.4,1.4-3.4,2-5.4,1.4c-3-0.8-4.7-3.8-3.9-6.8l6.8-25.4c0.8-3,3.8-4.7,6.8-3.9
			c3,0.8,4.7,3.8,3.9,6.8l-6.8,25.4C319.1,100.7,318.6,101.5,318,102.2z"/>
	</g>
</g>
</svg>
