<?xml version="1.0" encoding="utf-8"?>
<!-- Generator: Adobe Illustrator 24.1.2, SVG Export Plug-In . SVG Version: 6.00 Build 0)  -->
<svg version="1.1" id="Capa_1" xmlns="http://www.w3.org/2000/svg" xmlns:xlink="http://www.w3.org/1999/xlink" x="0px" y="0px"
	 viewBox="0 0 512 512" style="enable-background:new 0 0 512 512;" xml:space="preserve">
<style type="text/css">
	.st0{fill:#2F2E3C;}
	.st1{fill:#20202B;}
	.st2{fill:#8FA3A9;}
	.st3{fill:#F44336;}
	.st4{fill:#525464;}
	.st5{fill:#FF9800;}
</style>
<path class="st0" d="M414.7,304.9c0,55.7-21.9,106.1-57.6,143.3c-37.7,39.3-90.8,63.8-149.6,63.8C93.1,512,0.4,419.3,0.4,304.9
	c0-15.4,1.7-30.5,4.9-45C25.9,167.1,108.6,97.7,207.5,97.7c36.6,0,70.9,9.4,100.7,26.2c0.1,0,0.2,0,0.3,0.1l77,74.9
	C404.1,229.9,414.7,266.1,414.7,304.9z"/>
<g>
	<path class="st1" d="M357.1,448.2c-37.7,39.3-90.8,63.8-149.6,63.8C93.1,512,0.4,419.3,0.4,304.9c0-15.4,1.7-30.5,4.9-45
		C39.5,376,146.8,460.7,274,460.7C302.9,460.7,330.9,456.3,357.1,448.2z"/>
	<path class="st1" d="M409.7,174.8l-24.1,24.1l0,0c-7.8,7.8-31.1-2.9-52.2-24c-21-21-31.7-44.4-24-52.2l-1.1,1.1l25.2-25.2"/>
</g>
<ellipse transform="matrix(0.7071 -0.7071 0.7071 0.7071 12.1708 302.7654)" class="st0" cx="371.6" cy="136.7" rx="19.9" ry="53.8"/>
<path class="st2" d="M435.7,83.5L377,142.2c-1.5,1.5-3.5,2.3-5.5,2.3c-2,0-4-0.8-5.5-2.3c-3-3-3-7.9,0-10.9l27.7-27.7c0,0,0,0,0,0
	l30.9-30.9c3-3,7.9-3,10.9,0C438.7,75.6,438.7,80.5,435.7,83.5z"/>
<path class="st3" d="M435.7,83.5l-30.9,30.9c-1.5,1.5-3.5,2.3-5.5,2.3c-2,0-4-0.8-5.5-2.3c-3-3-3-7.9,0-10.9c0,0,0,0,0,0l30.9-30.9
	c3-3,7.9-3,10.9,0C438.7,75.6,438.7,80.5,435.7,83.5z"/>
<path class="st4" d="M169.9,136.3c-46.1,7.2,86.5,107.9,162.3,145.9c10.6,5.3,23.2-1.8,24.4-13.5c1.3-13,0.2-31.2-8.8-53.6
	C331.8,175.5,241.1,124.9,169.9,136.3z"/>
<g>
	<path class="st5" d="M432.4,52c-4.3,0-7.7-3.5-7.7-7.7V7.7c0-4.3,3.5-7.7,7.7-7.7s7.7,3.5,7.7,7.7v36.6
		C440.1,48.5,436.7,52,432.4,52z"/>
	<path class="st5" d="M432.4,160.6c-4.3,0-7.7-3.5-7.7-7.7v-36.6c0-4.3,3.5-7.7,7.7-7.7s7.7,3.5,7.7,7.7v36.6
		C440.1,157.1,436.7,160.6,432.4,160.6z"/>
	<path class="st5" d="M409.3,60.4c-2.2,0-4.4-0.9-5.9-2.8l-23.5-28c-2.7-3.3-2.3-8.1,1-10.9c3.3-2.7,8.1-2.3,10.9,1l23.5,28
		c2.7,3.3,2.3,8.1-1,10.9C412.8,59.8,411,60.4,409.3,60.4z"/>
	<path class="st5" d="M479.1,143.6c-2.2,0-4.4-0.9-5.9-2.8l-23.5-28c-2.7-3.3-2.3-8.1,1-10.9c3.3-2.7,8.1-2.3,10.9,1l23.5,28
		c2.7,3.3,2.3,8.1-1,10.9C482.6,143,480.8,143.6,479.1,143.6z"/>
	<path class="st5" d="M396.9,81.8c-0.4,0-0.9,0-1.4-0.1l-36-6.3c-4.2-0.7-7-4.7-6.3-8.9c0.7-4.2,4.7-7,8.9-6.3l36,6.3
		c4.2,0.7,7,4.7,6.3,8.9C403.9,79.1,400.6,81.8,396.9,81.8z"/>
	<path class="st5" d="M503.9,100.6c-0.4,0-0.9,0-1.4-0.1l-36-6.3c-4.2-0.7-7-4.7-6.3-8.9s4.7-7,8.9-6.3l36,6.3
		c4.2,0.7,7,4.7,6.3,8.9C510.8,98,507.6,100.6,503.9,100.6z"/>
	<path class="st5" d="M463.6,70c-2.7,0-5.3-1.4-6.7-3.9c-2.1-3.7-0.9-8.4,2.8-10.5l31.7-18.3c3.7-2.1,8.4-0.9,10.5,2.8
		c2.1,3.7,0.9,8.4-2.8,10.5L467.5,69C466.2,69.7,464.9,70,463.6,70z"/>
</g>
</svg>
